#!OML:ASF H:\Dans Jumps\Project 1\Capture day 1\Session 1\subject.ASF
:FULLY-SPECIFIED
:DEGREES
484
root 0.00916415 17.4003 -7.17054 10.3119 -1.60697 -0.748621
lowerback 5.74073 0.120173 -1.18985
upperback 5.94076 0.0900572 1.48774
thorax 2.90789 -0.0319881 2.19835
lowerneck -13.0322 0.234896 -1.48635
upperneck 31.4765 0.665801 0.183406
head 12.5918 0.138391 0.424642
rclavicle -7.95139e-016 -1.19271e-014
rhumerus -27.3915 -14.0494 -79.5616
rradius 25.4197
rwrist 30.7085
rhand -18.8176 -23.1646
rfingers 7.12502
rthumb 7.48119 -53.0123
lclavicle -7.95139e-016 -1.19271e-014
lhumerus -25.1593 -7.07376 90.667
lradius 28.8066
lwrist 18.5468
lhand -27.5274 -5.5245
lfingers 7.12502
lthumb -0.929425 24.4532
rfemur -25.8806 -3.05462 19.2654
rtibia 34.7683
rfoot -17.458 -1.40703
rtoes 4.17045
lfemur -24.1143 5.86277 -17.9723
ltibia 30.6402
lfoot -14.4343 6.35166
ltoes -0.330868
485
root 0.00912577 17.4001 -7.16689 10.2854 -1.63961 -0.743981
lowerback 5.71382 0.111195 -1.19906
upperback 5.93243 0.0781673 1.47788
thorax 2.91474 -0.0380643 2.1937
lowerneck -13.0645 0.258068 -1.47453
upperneck 31.5495 0.705689 0.156138
head 12.6286 0.153055 0.418242
rclavicle -1.49089e-015 -1.78906e-015
rhumerus -27.375 -13.9075 -79.6652
rradius 25.4712
rwrist 30.6542
rhand -18.8049 -23.1892
rfingers 7.12502
rthumb 7.49343 -53.0365
lclavicle -1.49089e-015 -1.78906e-015
lhumerus -25.1618 -7.12545 90.64
lradius 28.7435
lwrist 18.4717
lhand -27.3043 -5.08116
lfingers 7.12502
lthumb -0.714007 24.8974
rfemur -25.8338 -3.02899 19.2559
rtibia 34.7572
rfoot -17.4693 -1.41668
rtoes 4.12814
lfemur -24.0612 5.88256 -17.9763
ltibia 30.6328
lfoot -14.4449 6.36762
ltoes -0.330473
486
root 0.00932826 17.4 -7.16325 10.2632 -1.67566 -0.736633
lowerback 5.68394 0.102398 -1.2107
upperback 5.91878 0.0664633 1.4697
thorax 2.9177 -0.0440908 2.19213
lowerneck -13.0964 0.278495 -1.47032
upperneck 31.6376 0.743395 0.130128
head 12.6717 0.165876 0.413403
rclavicle -3.97569e-016 -1.90833e-014
rhumerus -27.3703 -13.7656 -79.7606
rradius 25.5333
rwrist 30.5802
rhand -18.7909 -23.2116
rfingers 7.12502
rthumb 7.50696 -53.0584
lclavicle -3.97569e-016 -1.90833e-014
lhumerus -25.1719 -7.15967 90.6175
lradius 28.6876
lwrist 18.3986
lhand -27.1778 -4.83477
lfingers 7.12502
lthumb -0.591765 25.1442
rfemur -25.7927 -3.00023 19.2419
rtibia 34.7466
rfoot -17.4822 -1.42589
rtoes 4.07623
lfemur -24.0104 5.90181 -17.9848
ltibia 30.6216
lfoot -14.4534 6.38607
ltoes -0.320124
487
root 0.0097048 17.4 -7.15973 10.24 -1.70976 -0.727807
lowerback 5.65465 0.0948619 -1.22069
upperback 5.90656 0.0564906 1.46113
thorax 2.92173 -0.0492035 2.18917
lowerneck -13.1339 0.286933 -1.4825
upperneck 31.7321 0.764117 0.117534
head 12.7189 0.170942 0.414177
rclavicle 4.27387e-015 -8.34896e-015
rhumerus -27.3654 -13.6325 -79.8552
rradius 25.6081
rwrist 30.4835
rhand -18.7661 -23.2472
rfingers 7.12502
rthumb 7.53088 -53.0931
lclavicle 4.27387e-015 -8.34896e-015
lhumerus -25.173 -7.19714 90.5981
lradius 28.629
lwrist 18.3456
lhand -27.1855 -4.83568
lfingers 7.12502
lthumb -0.599215 25.1432
rfemur -25.7499 -2.97212 19.2256
rtibia 34.7348
rfoot -17.4941 -1.43487
rtoes 4.02737
lfemur -23.9575 5.91787 -17.9952
ltibia 30.6062
lfoot -14.4607 6.4055
ltoes -0.30801
488
root 0.0102331 17.4001 -7.15641 10.2172 -1.74358 -0.719774
lowerback 5.62611 0.0888561 -1.22962
upperback 5.89446 0.0485496 1.45447
thorax 2.92537 -0.053301 2.18751
lowerneck -13.1657 0.291144 -1.4978
upperneck 31.8215 0.779304 0.105577
head 12.7628 0.173326 0.414907
rclavicle 2.48481e-015 8.54774e-015
rhumerus -27.3612 -13.5006 -79.947
rradius 25.6934
rwrist 30.3668
rhand -18.736 -23.2896
rfingers 7.12502
rthumb 7.55999 -53.1345
lclavicle 2.48481e-015 8.54774e-015
lhumerus -25.1656 -7.22644 90.5829
lradius 28.5651
lwrist 18.2986
lhand -27.2174 -4.89299
lfingers 7.12502
lthumb -0.630091 25.0858
rfemur -25.7071 -2.94102 19.2089
rtibia 34.7206
rfoot -17.5055 -1.44417
rtoes 3.98485
lfemur -23.9046 5.93225 -18.0052
ltibia 30.5881
lfoot -14.4656 6.42773
ltoes -0.300295
489
root 0.0109338 17.4003 -7.15328 10.1914 -1.77172 -0.713872
lowerback 5.60053 0.0833947 -1.23366
upperback 5.88558 0.041435 1.44911
thorax 2.93069 -0.0568767 2.18443
lowerneck -13.1958 0.295258 -1.51353
upperneck 31.904 0.793818 0.0956862
head 12.8036 0.175688 0.416382
rclavicle -4.96962e-015 -1.78906e-015
rhumerus -27.3513 -13.3751 -80.0382
rradius 25.7858
rwrist 30.2349
rhand -18.7032 -23.3326
rfingers 7.12502
rthumb 7.5916 -53.1763
lclavicle -4.96962e-015 -1.78906e-015
lhumerus -25.1462 -7.25825 90.5723
lradius 28.4913
lwrist 18.2517
lhand -27.2991 -5.02546
lfingers 7.12502
lthumb -0.708954 24.9531
rfemur -25.6608 -2.91493 19.1956
rtibia 34.7027
rfoot -17.5143 -1.45963
rtoes 3.91743
lfemur -23.8488 5.94131 -18.0124
ltibia 30.568
lfoot -14.4683 6.45179
ltoes -0.301463
490
root 0.0117446 17.4006 -7.15044 10.1634 -1.79588 -0.713941
lowerback 5.57591 0.0794338 -1.22978
upperback 5.88139 0.0365016 1.44523
thorax 2.94025 -0.0591872 2.17839
lowerneck -13.2228 0.299443 -1.52045
upperneck 31.9726 0.80775 0.0802986
head 12.8381 0.178263 0.414051
rclavicle 8.94531e-016 -1.2921e-014
rhumerus -27.3328 -13.25 -80.1324
rradius 25.8859
rwrist 30.0907
rhand -18.6716 -23.3771
rfingers 7.12502
rthumb 7.62209 -53.2197
lclavicle 8.94531e-016 -1.2921e-014
lhumerus -25.1116 -7.28985 90.5639
lradius 28.4054
lwrist 18.1985
lhand -27.3522 -5.10089
lfingers 7.12502
lthumb -0.760267 24.8775
rfemur -25.6101 -2.88811 19.1883
rtibia 34.6805
rfoot -17.521 -1.47405
rtoes 3.87983
lfemur -23.7916 5.94705 -18.0126
ltibia 30.5475
lfoot -14.4698 6.47629
ltoes -0.308692
491
root 0.0126341 17.4009 -7.14789 10.1339 -1.81777 -0.719888
lowerback 5.55198 0.0768553 -1.21802
upperback 5.8811 0.033608 1.44184
thorax 2.95337 -0.0602696 2.16838
lowerneck -13.2485 0.303955 -1.52104
upperneck 32.031 0.820434 0.0647296
head 12.8681 0.181115 0.410313
rclavicle -3.08116e-015 -8.74653e-015
rhumerus -27.3034 -13.1298 -80.2287
rradius 25.9835
rwrist 29.9521
rhand -18.6509 -23.4113
rfingers 7.12502
rthumb 7.64212 -53.2532
lclavicle -3.08116e-015 -8.74653e-015
lhumerus -25.0682 -7.31805 90.5562
lradius 28.3125
lwrist 18.1324
lhand -27.3899 -5.14482
lfingers 7.12502
lthumb -0.796701 24.8334
rfemur -25.5561 -2.85862 19.1869
rtibia 34.6534
rfoot -17.5238 -1.48959
rtoes 3.8571
lfemur -23.734 5.95121 -18.0058
ltibia 30.5273
lfoot -14.4692 6.50024
ltoes -0.310319
492
root 0.0136486 17.4013 -7.14562 10.1042 -1.83591 -0.729192
lowerback 5.52975 0.0745911 -1.2
upperback 5.88144 0.0313056 1.43853
thorax 2.96616 -0.0608286 2.15492
lowerneck -13.2754 0.308438 -1.51645
upperneck 32.0865 0.831856 0.0486956
head 12.8973 0.183999 0.405297
rclavicle -9.0447e-015 1.21259e-014
rhumerus -27.2661 -13.0079 -80.3257
rradius 26.0734
rwrist 29.8164
rhand -18.647 -23.4247
rfingers 7.12502
rthumb 7.64588 -53.2665
lclavicle -9.0447e-015 1.21259e-014
lhumerus -25.0235 -7.33376 90.5474
lradius 28.224
lwrist 18.058
lhand -27.3868 -5.12408
lfingers 7.12502
lthumb -0.793635 24.8542
rfemur -25.5012 -2.83454 19.1902
rtibia 34.6217
rfoot -17.5223 -1.50873
rtoes 3.80279
lfemur -23.6775 5.95162 -17.9953
ltibia 30.5078
lfoot -14.4685 6.52292
ltoes -0.305351
493
root 0.0146716 17.4018 -7.14355 10.074 -1.85301 -0.741696
lowerback 5.50631 0.0731619 -1.1782
upperback 5.8846 0.0302146 1.43484
thorax 2.98248 -0.0606898 2.13891
lowerneck -13.2974 0.316349 -1.50105
upperneck 32.1309 0.846828 0.0274384
head 12.9207 0.189164 0.396823
rclavicle -4.96962e-015 -6.36111e-015
rhumerus -27.2159 -12.8838 -80.4252
rradius 26.1538
rwrist 29.6908
rhand -18.6494 -23.4291
rfingers 7.12502
rthumb 7.64357 -53.2709
lclavicle -4.96962e-015 -6.36111e-015
lhumerus -24.9782 -7.33915 90.5376
lradius 28.1414
lwrist 17.9731
lhand -27.4052 -5.1516
lfingers 7.12502
lthumb -0.811463 24.8266
rfemur -25.4443 -2.81067 19.1973
rtibia 34.5859
rfoot -17.5163 -1.52949
rtoes 3.73933
lfemur -23.6216 5.95208 -17.9812
ltibia 30.4888
lfoot -14.4671 6.54302
ltoes -0.299064
494
root 0.0158274 17.4025 -7.14148 10.0484 -1.8705 -0.755244
lowerback 5.47967 0.0702569 -1.15661
upperback 5.88326 0.0271552 1.43297
thorax 2.996 -0.0615146 2.12494
lowerneck -13.3105 0.331226 -1.48297
upperneck 32.1732 0.870896 0.0062729
head 12.9414 0.198663 0.389198
rclavicle -2.48481e-015 -4.57205e-015
rhumerus -27.1664 -12.7432 -80.5213
rradius 26.2262
rwrist 29.5719
rhand -18.659 -23.4166
rfingers 7.12502
rthumb 7.63429 -53.2588
lclavicle -2.48481e-015 -4.57205e-015
lhumerus -24.9464 -7.31848 90.5284
lradius 28.0754
lwrist 17.8803
lhand -27.431 -5.20267
lfingers 7.12502
lthumb -0.83633 24.7754
rfemur -25.392 -2.79086 19.2058
rtibia 34.5476
rfoot -17.5083 -1.54857
rtoes 3.65649
lfemur -23.5703 5.95178 -17.967
ltibia 30.4691
lfoot -14.4657 6.56198
ltoes -0.289806
495
root 0.0170038 17.4031 -7.13963 10.0239 -1.88349 -0.769066
lowerback 5.45415 0.0660534 -1.13418
upperback 5.88024 0.0223969 1.43104
thorax 3.00721 -0.0631159 2.11048
lowerneck -13.3129 0.344533 -1.4742
upperneck 32.2078 0.890872 -0.00245662
head 12.9564 0.206947 0.387343
rclavicle 8.94531e-016 -4.96962e-015
rhumerus -27.1136 -12.5974 -80.617
rradius 26.2942
rwrist 29.4613
rhand -18.6616 -23.4062
rfingers 7.12502
rthumb 7.6318 -53.2485
lclavicle 8.94531e-016 -4.96962e-015
lhumerus -24.9222 -7.29383 90.5207
lradius 28.0236
lwrist 17.802
lhand -27.46 -5.26382
lfingers 7.12502
lthumb -0.864344 24.7142
rfemur -25.3413 -2.77854 19.216
rtibia 34.5088
rfoot -17.4969 -1.56588
rtoes 3.56648
lfemur -23.5214 5.94946 -17.9527
ltibia 30.4479
lfoot -14.4628 6.57885
ltoes -0.286915
496
root 0.0181825 17.4039 -7.13795 10.0017 -1.89618 -0.777743
lowerback 5.42798 0.0618371 -1.11838
upperback 5.8753 0.0174517 1.42829
thorax 3.01682 -0.0650016 2.09889
lowerneck -13.3044 0.361687 -1.46143
upperneck 32.2334 0.915423 -0.0123932
head 12.9653 0.21766 0.384916
rclavicle -2.98177e-015 -5.36719e-015
rhumerus -27.0611 -12.447 -80.7099
rradius 26.365
rwrist 29.3625
rhand -18.6504 -23.402
rfingers 7.12502
rthumb 7.64261 -53.2439
lclavicle -2.98177e-015 -5.36719e-015
lhumerus -24.9044 -7.2669 90.5153
lradius 27.9893
lwrist 17.7533
lhand -27.4668 -5.30252
lfingers 7.12502
lthumb -0.87097 24.6754
rfemur -25.2938 -2.76949 19.2203
rtibia 34.4709
rfoot -17.4862 -1.57657
rtoes 3.49871
lfemur -23.4749 5.94815 -17.9449
ltibia 30.4243
lfoot -14.4585 6.59409
ltoes -0.288683
497
root 0.0193233 17.4047 -7.13656 9.98147 -1.90612 -0.782518
lowerback 5.40417 0.0572776 -1.10898
upperback 5.8672 0.0118529 1.4266
thorax 3.02185 -0.0674014 2.092
lowerneck -13.2817 0.383195 -1.45331
upperneck 32.25 0.945332 -0.0165733
head 12.9672 0.231022 0.386228
rclavicle 3.47873e-015 -1.05356e-014
rhumerus -27.0136 -12.2946 -80.7969
rradius 26.4417
rwrist 29.2724
rhand -18.6309 -23.4038
rfingers 7.12502
rthumb 7.66137 -53.245
lclavicle 3.47873e-015 -1.05356e-014
lhumerus -24.8963 -7.25471 90.5193
lradius 27.9668
lwrist 17.7326
lhand -27.4839 -5.34859
lfingers 7.12502
lthumb -0.887443 24.6293
rfemur -25.2493 -2.76305 19.2199
rtibia 34.4353
rfoot -17.4773 -1.57991
rtoes 3.47499
lfemur -23.4312 5.94618 -17.9417
ltibia 30.3979
lfoot -14.452 6.60766
ltoes -0.298235
